<svg class="animated" id="freepik_stories-weights" xmlns="http://www.w3.org/2000/svg" viewBox="0 0 500 500" version="1.1" xmlns:xlink="http://www.w3.org/1999/xlink" xmlns:svgjs="http://svgjs.com/svgjs"><style>svg#freepik_stories-weights:not(.animated) .animable {opacity: 0;}svg#freepik_stories-weights.animated #freepik--Bottle--inject-25 {animation: 1s 1 forwards cubic-bezier(.36,-0.01,.5,1.38) fadeIn,6s Infinite  linear shake;animation-delay: 0s,1s;}svg#freepik_stories-weights.animated #freepik--Dumbbells--inject-25 {animation: 3s Infinite  linear wind;animation-delay: 0s;}svg#freepik_stories-weights.animated #freepik--Character--inject-25 {animation: 1s 1 forwards cubic-bezier(.36,-0.01,.5,1.38) fadeIn,3s Infinite  linear wind;animation-delay: 0s,1s;}            @keyframes fadeIn {                0% {                    opacity: 0;                }                100% {                    opacity: 1;                }            }                    @keyframes shake {                10%, 90% {                    transform: translate3d(-1px, 0, 0);                  }                  20%, 80% {                    transform: translate3d(2px, 0, 0);                  }                  30%, 50%, 70% {                    transform: translate3d(-4px, 0, 0);                  }                  40%, 60% {                    transform: translate3d(4px, 0, 0);                  }            }                    @keyframes wind {                0% {                    transform: rotate( 0deg );                }                25% {                    transform: rotate( 1deg );                }                75% {                    transform: rotate( -1deg );                }            }        .animator-hidden { display: none; }</style><g id="freepik--background-complete--inject-25" class="animable animator-hidden" style="transform-origin: 250px 228.23px;"><rect y="382.4" width="500" height="0.25" style="fill: rgb(235, 235, 235); transform-origin: 250px 382.525px;" id="elqr2exwgo0mg" class="animable"></rect><rect x="416.78" y="398.49" width="33.12" height="0.25" style="fill: rgb(235, 235, 235); transform-origin: 433.34px 398.615px;" id="elcdma7kf56zw" class="animable"></rect><rect x="322.53" y="401.21" width="8.69" height="0.25" style="fill: rgb(235, 235, 235); transform-origin: 326.875px 401.335px;" id="elevfikf1qvml" class="animable"></rect><rect x="396.59" y="389.21" width="19.19" height="0.25" style="fill: rgb(235, 235, 235); transform-origin: 406.185px 389.335px;" id="el9nbuzqze13s" class="animable"></rect><rect x="52.46" y="390.89" width="43.19" height="0.25" style="fill: rgb(235, 235, 235); transform-origin: 74.055px 391.015px;" id="elhdjsuo9kjal" class="animable"></rect><rect x="104.56" y="390.89" width="6.33" height="0.25" style="fill: rgb(235, 235, 235); transform-origin: 107.725px 391.015px;" id="el22r1i68d6lrh" class="animable"></rect><rect x="131.47" y="395.11" width="93.68" height="0.25" style="fill: rgb(235, 235, 235); transform-origin: 178.31px 395.235px;" id="elpkdiotm5b3" class="animable"></rect><path d="M237,337.8H43.91a5.71,5.71,0,0,1-5.7-5.71V60.66A5.71,5.71,0,0,1,43.91,55H237a5.71,5.71,0,0,1,5.71,5.71V332.09A5.71,5.71,0,0,1,237,337.8ZM43.91,55.2a5.46,5.46,0,0,0-5.45,5.46V332.09a5.46,5.46,0,0,0,5.45,5.46H237a5.47,5.47,0,0,0,5.46-5.46V60.66A5.47,5.47,0,0,0,237,55.2Z" style="fill: rgb(235, 235, 235); transform-origin: 140.46px 196.4px;" id="eligghi1bqxbo" class="animable"></path><path d="M453.31,337.8H260.21a5.72,5.72,0,0,1-5.71-5.71V60.66A5.72,5.72,0,0,1,260.21,55h193.1A5.71,5.71,0,0,1,459,60.66V332.09A5.71,5.71,0,0,1,453.31,337.8ZM260.21,55.2a5.47,5.47,0,0,0-5.46,5.46V332.09a5.47,5.47,0,0,0,5.46,5.46h193.1a5.47,5.47,0,0,0,5.46-5.46V60.66a5.47,5.47,0,0,0-5.46-5.46Z" style="fill: rgb(235, 235, 235); transform-origin: 356.75px 196.4px;" id="elk83jts4yq0c" class="animable"></path><rect x="70.36" y="140.72" width="359.28" height="174.32" style="fill: rgb(240, 240, 240); transform-origin: 250px 227.88px;" id="elztd3hljrhgh" class="animable"></rect><path d="M362.7,287.71l-2.46-.3a4.41,4.41,0,0,0-.52,0,5.11,5.11,0,0,0-4.12,2.52c-1.28-.46-2.31-.76-2.31-.76a4.8,4.8,0,0,0-3.71-3l-2.46-.3c-2.63-.32-5.09,2-5.72,5.19a40.56,40.56,0,0,0-8.38-2.65l.94-3.23s1.52-2.65.49-5.08a19.7,19.7,0,0,1-1.24-5.43s2.56-3.92,1.41-7.4-7.52-4.32-7.52-4.32-.73-.63-2.11-1.63l-.08-.06.11-.45-2.36-1.55s0,.14-.09.38c-1.76-1.17-4-2.54-6.66-4-.45-.57-.77-1.13-.54-1.52s.51-.81.79-1.21l.43-.58.41.11a8.28,8.28,0,0,0,6.64-1.73,16.86,16.86,0,0,0,1.95-1.86,20.38,20.38,0,0,0,3.76-5.77s0,0,.06,0a.23.23,0,0,0,.16,0,.27.27,0,0,0,0-.39h0s-.05,0-.06-.06a14.17,14.17,0,0,0,.6-2.06,20.54,20.54,0,0,0,.79-2.93c2-1.12,3.63-6.35,2.12-8.83-1.59-2.64-7.29-4.45-7.82-4.62a12.76,12.76,0,0,1,3.22,2.12c-.29-.14-4.87-2.39-7.92-2.47s-7.55,3.67-8.48,7.69l.82-1.24a19,19,0,0,0-1.24,4.65,3,3,0,0,0-.9,1.58,5.58,5.58,0,0,0,.43,3.42,21.52,21.52,0,0,0-.4,3.88c0,.33,0,.67,0,1a20.57,20.57,0,0,1-2.78,5.64,4.91,4.91,0,0,1-1.76,1l-1.45-.43h0a51.73,51.73,0,0,0-5.62-1.21c0-.24,0-.38,0-.38l-3.85-.3v.2c-.45,0-.85-.08-1.22-.1-1.85-.76-4.68-1.52-7-.31-3.75,2-6.46,9.9-6.46,9.9s-5.91,13-7.36,15.13-3.51,25-3.51,25-.44.68-1,1.66a2.22,2.22,0,0,0-.41-.2,4,4,0,0,0-1-.28l-2.45-.34c-2.78-.4-5.43,2.13-5.93,5.63s1.35,6.67,4.13,7.06l2.45.35a4.55,4.55,0,0,0,.52,0,5.12,5.12,0,0,0,4.17-2.44c1.27.49,2.29.81,2.29.81a4.83,4.83,0,0,0,3.65,3.1l2.46.35.51,0c2.58,0,4.94-2.39,5.41-5.68.5-3.51-1.35-6.67-4.12-7.06l-2.46-.35a4.39,4.39,0,0,0-3.14.81c-.17-1.1-.29-2.7-.36-3.78,1.52-3.39,5.92-14,4.9-20.62-.2-1.33,4.56-1.71,9.55-8.55-.25,2.92-.27,4-.38,6.81-.21,4.72-.25,9-.23,12.45a4.61,4.61,0,0,1-.81.41l1,7.35v0A125.71,125.71,0,0,0,286.58,315H360.8c-5-2.11-14.73-3.93-18.29-4.55-.13-.56-.23-.86-.23-.86l-19.92-3.13-1.71-8.13.71-5.26a5.29,5.29,0,0,1-.22-.53c.35-3.18.8-6.3,1.31-9.27.38,1.8.83,3.56,1.35,5.19,1.34,4.3,3.09,7.63,5,7.92,2.51.38,10,1.12,15.24,1.63a4.27,4.27,0,0,0,1.5.49l2.46.3s7.71,1,8.9,1a.58.58,0,0,0,.34-.16,4.14,4.14,0,0,0,1.42.45l2.46.3c2.78.34,5.38-2.23,5.81-5.75S365.48,288.05,362.7,287.71Z" style="fill: rgb(224, 224, 224); isolation: isolate; transform-origin: 312.92px 269.419px;" id="elht7evq3fokv" class="animable"></path><path d="M192.93,294.22h-1.76A8.84,8.84,0,0,0,185,297v-9.63a6.78,6.78,0,0,0,5.18,2.6h1.32c4.18,0,7.56-4.28,7.56-9.56s-3.38-9.56-7.56-9.56h-1.32a6.89,6.89,0,0,0-5.46,3h-4v5.18h-5.28a1,1,0,0,0-.11-.33c-.85-.94-4.93-.78-4.93-.78s-8,.54-9.52.36a5.69,5.69,0,0,0-3.09.75H150.8c-.55-4.6-3.68-8.14-7.47-8.14H142c-4.18,0-7.57,4.28-7.57,9.56s3.39,9.56,7.57,9.56h1.32l.41,0v4.32h-.69c-5.57,0-10.08,5.71-10.08,12.75a14.84,14.84,0,0,0,2.28,8.07h17.36a14.47,14.47,0,0,0,2.22-6.65h.95a52.88,52.88,0,0,0,.33,6.65c0,.1,0,.15.07.16a.46.46,0,0,0,.46-.16c.47-.42,1-1.42,2.37-.82a2.63,2.63,0,0,0,1.19.25c0,.19,0,.38,0,.57H176c.1-1.59.16-3.92.19-6.65h4.48V315h20.09A14.92,14.92,0,0,0,203,307C203,299.93,198.51,294.22,192.93,294.22Zm-37.18,11.32h-.92c-.43-5-3.15-9.09-6.8-10.65v-7a10.37,10.37,0,0,0,2.77-6.06h6C156,286.87,155.72,297.61,155.75,305.54Zm24.91,0h-4.47c0-8.22-.2-18.61-.53-23.75h5Z" style="fill: rgb(224, 224, 224); isolation: isolate; transform-origin: 167.98px 293.086px;" id="el88r8x93kdp" class="animable"></path><polygon points="147.63 140.72 70.36 314.11 70.36 259.61 123.34 140.72 147.63 140.72" style="fill: rgb(245, 245, 245); transform-origin: 108.995px 227.415px;" id="elnf76pewwfsm" class="animable"></polygon><polygon points="429.64 217.28 429.64 271.78 410.36 315.04 386.08 315.04 429.64 217.28" style="fill: rgb(245, 245, 245); transform-origin: 407.86px 266.16px;" id="elo9runocnpnf" class="animable"></polygon><polygon points="178.93 140.72 101.25 315.04 89.11 315.04 166.78 140.72 178.93 140.72" style="fill: rgb(245, 245, 245); transform-origin: 134.02px 227.88px;" id="eli40armqif5" class="animable"></polygon><polygon points="394.09 140.72 316.42 315.04 304.28 315.04 381.95 140.72 394.09 140.72" style="fill: rgb(245, 245, 245); transform-origin: 349.185px 227.88px;" id="elikspbxn4j4" class="animable"></polygon><polygon points="338.99 140.72 261.31 315.04 257.11 315.04 334.79 140.72 338.99 140.72" style="fill: rgb(245, 245, 245); transform-origin: 298.05px 227.88px;" id="elm5i99b76mr" class="animable"></polygon><rect x="189.05" y="140.72" width="1.82" height="174.32" style="fill: rgb(224, 224, 224); isolation: isolate; transform-origin: 189.96px 227.88px;" id="elg7dg0lw2uvh" class="animable"></rect><rect x="309.13" y="140.72" width="1.82" height="174.32" style="fill: rgb(224, 224, 224); isolation: isolate; transform-origin: 310.04px 227.88px;" id="elueq7u62jnm" class="animable"></rect><g id="el76j0m7i6qqe"><circle cx="250" cy="106.74" r="22.21" style="fill: rgb(224, 224, 224); transform-origin: 250px 106.74px; transform: rotate(-67.5deg);" class="animable" id="ell4nujq50ma"></circle></g><g id="eljaw17tcd5je"><circle cx="250" cy="106.74" r="18.89" style="fill: rgb(240, 240, 240); transform-origin: 250px 106.74px; transform: rotate(-16.85deg);" class="animable" id="el9t1t5g43swp"></circle></g><polyline points="256.46 94.94 250.89 106.98 250.89 98.49" style="fill: rgb(240, 240, 240); transform-origin: 253.675px 100.96px;" id="elrri0hwr6yw" class="animable"></polyline><path d="M250.89,107.93l-.2,0A1,1,0,0,1,250,107v-8.5a.94.94,0,1,1,1.88,0v4.21l3.78-8.15a.94.94,0,1,1,1.71.79l-5.57,12A1,1,0,0,1,250.89,107.93Z" style="fill: rgb(224, 224, 224); transform-origin: 253.728px 100.972px;" id="elseyv7gac1zn" class="animable"></path></g><g id="freepik--Shadow--inject-25" class="animable animator-hidden" style="transform-origin: 250px 416.24px;"><ellipse id="freepik--path--inject-25" cx="250" cy="416.24" rx="193.89" ry="11.32" style="fill: rgb(245, 245, 245); transform-origin: 250px 416.24px;" class="animable"></ellipse></g><g id="freepik--Bottle--inject-25" class="animable" style="transform-origin: 385.25px 396.075px;"><path d="M403.71,400.24h3c3.39,0,6.14,3.48,6.14,7.76s-2.75,7.76-6.14,7.76h-3c-3.39,0-6.14-3.47-6.14-7.76S400.32,400.24,403.71,400.24Z" style="fill: rgb(38, 50, 56); transform-origin: 405.21px 408px;" id="elnjvjhupdsg9" class="animable"></path><g id="el2fzp47ad4ti"><path d="M403.71,400.24h3c3.39,0,6.14,3.48,6.14,7.76s-2.75,7.76-6.14,7.76h-3c-3.39,0-6.14-3.47-6.14-7.76S400.32,400.24,403.71,400.24Z" style="fill: rgb(255, 255, 255); opacity: 0.1; isolation: isolate; transform-origin: 405.21px 408px;" class="animable" id="el9ufhzxwu40d"></path></g><g id="elibr20nvz5k"><path d="M397.57,408c0,4.29,2.75,7.76,6.14,7.76s6.14-3.47,6.14-7.76-2.75-7.76-6.14-7.76S397.57,403.72,397.57,408Z" style="fill: rgb(255, 255, 255); opacity: 0.2; isolation: isolate; transform-origin: 403.71px 408px;" class="animable" id="elyqqvkz5tkn"></path></g><path d="M391.45,405h11.16c1.32,0,2.39,1.35,2.39,3s-1.07,3-2.39,3H391.45c-1.32,0-2.39-1.35-2.39-3S390.13,405,391.45,405Z" style="fill: rgb(38, 50, 56); transform-origin: 397.03px 408px;" id="el9jf8ydxjnpi" class="animable"></path><path d="M387.71,400.24h3c3.39,0,6.14,3.48,6.14,7.76s-2.75,7.76-6.14,7.76h-3c-3.39,0-6.14-3.47-6.14-7.76S384.32,400.24,387.71,400.24Z" style="fill: rgb(38, 50, 56); transform-origin: 389.21px 408px;" id="el9b2y3nn58c" class="animable"></path><g id="elz5afpcbb4g"><path d="M387.71,400.24h3c3.39,0,6.14,3.48,6.14,7.76s-2.75,7.76-6.14,7.76h-3c-3.39,0-6.14-3.47-6.14-7.76S384.32,400.24,387.71,400.24Z" style="fill: rgb(255, 255, 255); opacity: 0.1; isolation: isolate; transform-origin: 389.21px 408px;" class="animable" id="eludtup5gbl0k"></path></g><g id="elxtidxg4yqcb"><path d="M381.57,408c0,4.29,2.75,7.76,6.14,7.76s6.14-3.47,6.14-7.76-2.75-7.76-6.14-7.76S381.57,403.72,381.57,408Z" style="fill: rgb(255, 255, 255); opacity: 0.2; isolation: isolate; transform-origin: 387.71px 408px;" class="animable" id="eldj5o5jcqax"></path></g><path d="M383,378.48A2.07,2.07,0,0,1,381,377.1a1.07,1.07,0,0,0-1-.71h0a1.05,1.05,0,0,0-1,.71,2.07,2.07,0,0,1-1.95,1.38H377v4.59H383v-4.59Zm-3-.21a.67.67,0,1,1,.67-.66A.67.67,0,0,1,380,378.27Z" style="fill: rgb(38, 50, 56); transform-origin: 380px 379.73px;" id="elv52ua1uqhoc" class="animable"></path><path d="M385.58,392.05v-7.84a1.56,1.56,0,0,0-1.57-1.56h-8a1.56,1.56,0,0,0-1.56,1.56v7.84a.8.8,0,0,0,.8.8h9.55A.8.8,0,0,0,385.58,392.05Z" style="fill: #7F4ADB; transform-origin: 380.015px 387.75px;" id="elesipup9zi3e" class="animable"></path><path d="M374.43,396.42V414.2a1.56,1.56,0,0,0,1.56,1.56h8a1.56,1.56,0,0,0,1.57-1.56V396.42a.8.8,0,0,0-.8-.8h-9.55A.8.8,0,0,0,374.43,396.42Z" style="fill: #7F4ADB; transform-origin: 379.995px 405.69px;" id="elcvh0gi1ve3d" class="animable"></path><rect x="375.36" y="391.66" width="9.3" height="4.78" style="fill: #7F4ADB; transform-origin: 380.01px 394.05px;" id="elf2brlrj0dvt" class="animable"></rect><path d="M363.73,415.76h-2c-2.25,0-4.08-2.3-4.08-5.15s1.83-5.15,4.08-5.15h2c2.25,0,4.08,2.31,4.08,5.15S366,415.76,363.73,415.76Z" style="fill: rgb(38, 50, 56); transform-origin: 362.73px 410.61px;" id="elut56unt08wn" class="animable"></path><g id="ele51z9l5sffr"><path d="M363.73,415.76h-2c-2.25,0-4.08-2.3-4.08-5.15s1.83-5.15,4.08-5.15h2c2.25,0,4.08,2.31,4.08,5.15S366,415.76,363.73,415.76Z" style="fill: rgb(255, 255, 255); opacity: 0.1; isolation: isolate; transform-origin: 362.73px 410.61px;" class="animable" id="elc74p2qbfhwk"></path></g><g id="elc5is4ce241t"><ellipse cx="363.73" cy="410.61" rx="4.08" ry="5.15" style="fill: rgb(255, 255, 255); opacity: 0.2; isolation: isolate; transform-origin: 363.73px 410.61px;" class="animable" id="elhiio3rsz855"></ellipse></g><path d="M371.87,412.61h-7.41a2.05,2.05,0,0,1,0-4h7.41a2.06,2.06,0,0,1,0,4Z" style="fill: rgb(38, 50, 56); transform-origin: 368.148px 410.61px;" id="elugfr2rwiyv" class="animable"></path><path d="M374.35,415.76h-2c-2.25,0-4.08-2.3-4.08-5.15s1.83-5.15,4.08-5.15h2c2.25,0,4.08,2.31,4.08,5.15S376.6,415.76,374.35,415.76Z" style="fill: rgb(38, 50, 56); transform-origin: 373.35px 410.61px;" id="elf75nz0pq1ii" class="animable"></path><g id="elfja2hhyw61b"><path d="M374.35,415.76h-2c-2.25,0-4.08-2.3-4.08-5.15s1.83-5.15,4.08-5.15h2c2.25,0,4.08,2.31,4.08,5.15S376.6,415.76,374.35,415.76Z" style="fill: rgb(255, 255, 255); opacity: 0.1; isolation: isolate; transform-origin: 373.35px 410.61px;" class="animable" id="el5uufeg0mro"></path></g><g id="el602uoikd29t"><ellipse cx="374.35" cy="410.61" rx="4.08" ry="5.15" style="fill: rgb(255, 255, 255); opacity: 0.2; isolation: isolate; transform-origin: 374.35px 410.61px;" class="animable" id="elqy2pyxn820s"></ellipse></g></g><g id="freepik--Dumbbells--inject-25" class="animable" style="transform-origin: 109.62px 350.07px;"><path d="M96.94,295.35c-2.73,1.76-2.6,41.95-1.81,42.2s1.19-2.07,3.3-1.14,2.77-.66,7.78-.66,4.48,3.82,5,0,0-38.77,0-38.77Z" style="fill: #7F4ADB; transform-origin: 103.038px 316.46px;" id="elkavd3n8edvs" class="animable"></path><g id="el2xi0qz0tr5v"><path d="M96.94,295.35c-2.73,1.76-2.6,41.95-1.81,42.2s1.19-2.07,3.3-1.14,2.77-.66,7.78-.66,4.48,3.82,5,0,0-38.77,0-38.77Z" style="fill: rgb(255, 255, 255); opacity: 0.3; isolation: isolate; transform-origin: 103.038px 316.46px;" class="animable" id="elwufnhxqnx5r"></path></g><path d="M135.85,313.14h2.05c6.48,0,11.74,6.64,11.74,14.83s-5.26,14.83-11.74,14.83h-2.05c-6.48,0-11.74-6.64-11.74-14.83S129.37,313.14,135.85,313.14Z" style="fill: rgb(38, 50, 56); transform-origin: 136.875px 327.97px;" id="elojsvwtwl31k" class="animable"></path><g id="elvtpw766znd"><path d="M124.12,328c0,8.19,5.25,14.83,11.73,14.83s11.74-6.64,11.74-14.83-5.26-14.83-11.74-14.83S124.12,319.78,124.12,328Z" style="fill: rgb(255, 255, 255); opacity: 0.2; isolation: isolate; transform-origin: 135.855px 328px;" class="animable" id="elmpy7m4liczb"></path></g><path d="M133.9,317h1.52c4.8,0,8.69,4.92,8.69,11s-3.89,11-8.69,11H133.9c-4.8,0-8.69-4.92-8.69-11S129.1,317,133.9,317Z" style="fill: rgb(38, 50, 56); transform-origin: 134.66px 328px;" id="el1ny7vxg3njo" class="animable"></path><g id="el36hr5nrn6s8"><path d="M125.21,328c0,6.07,3.89,11,8.69,11s8.7-4.92,8.7-11-3.9-11-8.7-11S125.21,321.9,125.21,328Z" style="fill: rgb(255, 255, 255); opacity: 0.1; isolation: isolate; transform-origin: 133.905px 328px;" class="animable" id="eletxgvwouuv6"></path></g><path d="M132,324.6h.47c1.47,0,2.66,1.51,2.66,3.37s-1.19,3.37-2.66,3.37H132c-1.47,0-2.66-1.51-2.66-3.37S130.48,324.6,132,324.6Z" style="fill: rgb(38, 50, 56); transform-origin: 132.235px 327.97px;" id="elnl1vfgot5vn" class="animable"></path><g id="elyyo9wb2d85"><path d="M129.29,328c0,1.86,1.19,3.37,2.66,3.37s2.67-1.51,2.67-3.37-1.2-3.37-2.67-3.37S129.29,326.11,129.29,328Z" style="fill: rgb(255, 255, 255); opacity: 0.2; isolation: isolate; transform-origin: 131.955px 328px;" class="animable" id="elifl01d7s32"></path></g><path d="M134.63,285.89h1.54c4.86,0,8.8,5,8.8,11.12s-3.94,11.13-8.8,11.13h-1.54c-4.86,0-8.8-5-8.8-11.13S129.77,285.89,134.63,285.89Z" style="fill: rgb(38, 50, 56); transform-origin: 135.4px 297.015px;" id="el962uicd1t99" class="animable"></path><g id="elqnjge2c1xb"><path d="M125.83,297c0,6.15,3.94,11.13,8.8,11.13s8.81-5,8.81-11.13-3.95-11.12-8.81-11.12S125.83,290.87,125.83,297Z" style="fill: rgb(255, 255, 255); opacity: 0.2; isolation: isolate; transform-origin: 134.635px 297.005px;" class="animable" id="eltaw109y404"></path></g><path d="M133.17,288.77h1.14c3.6,0,6.52,3.69,6.52,8.24s-2.92,8.24-6.52,8.24h-1.14c-3.6,0-6.52-3.69-6.52-8.24S129.57,288.77,133.17,288.77Z" style="fill: rgb(38, 50, 56); transform-origin: 133.74px 297.01px;" id="el87zflqoan4v" class="animable"></path><g id="el7lfk0t7ktee"><path d="M126.65,297c0,4.55,2.92,8.24,6.52,8.24s6.52-3.69,6.52-8.24-2.92-8.24-6.52-8.24S126.65,292.46,126.65,297Z" style="fill: rgb(255, 255, 255); opacity: 0.1; isolation: isolate; transform-origin: 133.17px 297px;" class="animable" id="el7v035g54mgy"></path></g><path d="M131.71,294.49h.35a2.59,2.59,0,0,1,0,5.05h-.35a2.59,2.59,0,0,1,0-5.05Z" style="fill: rgb(38, 50, 56); transform-origin: 131.885px 297.015px;" id="el47zwzrvyr05" class="animable"></path><g id="eldrj7e5gcw7k"><path d="M129.71,297a2.05,2.05,0,1,0,2-2.52A2.31,2.31,0,0,0,129.71,297Z" style="fill: rgb(255, 255, 255); opacity: 0.2; isolation: isolate; transform-origin: 131.727px 296.53px;" class="animable" id="eloy8310ipel7"></path></g><path d="M136.38,347h2.46c7.78,0,14.09,8,14.09,17.8s-6.31,17.8-14.09,17.8h-2.46c-7.77,0-14.08-8-14.08-17.8S128.61,347,136.38,347Z" style="fill: rgb(38, 50, 56); transform-origin: 137.615px 364.8px;" id="elis64kmejbin" class="animable"></path><g id="el4b6o18u20rv"><ellipse cx="136.38" cy="364.82" rx="14.08" ry="17.8" style="fill: rgb(255, 255, 255); opacity: 0.2; isolation: isolate; transform-origin: 136.38px 364.82px;" class="animable" id="elvbmok2we6v"></ellipse></g><path d="M134,351.63h1.82c5.77,0,10.44,5.91,10.44,13.19S141.63,378,135.86,378H134c-5.76,0-10.43-5.91-10.43-13.19S128.28,351.63,134,351.63Z" style="fill: rgb(38, 50, 56); transform-origin: 134.915px 364.815px;" id="elv27crm5j7cr" class="animable"></path><g id="el31in95dq0pv"><path d="M123.61,364.82c0,7.28,4.67,13.19,10.43,13.19s10.44-5.91,10.44-13.19-4.67-13.19-10.44-13.19S123.61,357.54,123.61,364.82Z" style="fill: rgb(255, 255, 255); opacity: 0.1; isolation: isolate; transform-origin: 134.045px 364.82px;" class="animable" id="elvbsoo5l51m"></path></g><path d="M131.7,360.78h.56c1.77,0,3.2,1.81,3.2,4s-1.43,4-3.2,4h-.56c-1.76,0-3.19-1.81-3.19-4S129.94,360.78,131.7,360.78Z" style="fill: rgb(38, 50, 56); transform-origin: 131.985px 364.78px;" id="eljuru22ueeup" class="animable"></path><g id="eloususdnk5v"><path d="M128.51,364.82c0,2.23,1.43,4,3.19,4s3.2-1.81,3.2-4-1.43-4-3.2-4S128.51,362.59,128.51,364.82Z" style="fill: rgb(255, 255, 255); opacity: 0.2; isolation: isolate; transform-origin: 131.705px 364.82px;" class="animable" id="elg0t3mj562n7"></path></g><polygon points="81.46 410.19 83.62 410.49 85.46 410.19 99.7 412.19 99.7 414.26 95.7 414.26 73.33 414.26 69.33 414.26 69.33 412.19 81.46 410.19" style="fill: rgb(38, 50, 56); transform-origin: 84.515px 412.225px;" id="elg77ay1pdy9q" class="animable"></polygon><g id="el31a0paqcbsv"><polygon points="81.46 410.19 83.62 410.49 85.46 410.19 99.7 412.19 99.7 414.26 95.7 414.26 73.33 414.26 69.33 414.26 69.33 412.19 81.46 410.19" style="fill: rgb(255, 255, 255); opacity: 0.2; isolation: isolate; transform-origin: 84.515px 412.225px;" class="animable" id="elle63f61y2s"></polygon></g><g id="el5appsvtozc"><polygon points="83.62 410.49 95.71 412.19 95.71 414.26 99.71 414.26 99.71 412.19 85.46 410.19 83.62 410.49" style="fill: rgb(255, 255, 255); opacity: 0.2; isolation: isolate; transform-origin: 91.665px 412.225px;" class="animable" id="ele4omgv97eap"></polygon></g><g id="el010kyoax4cqzc"><rect x="80.66" y="289.32" width="4.99" height="121.1" style="fill: rgb(38, 50, 56); transform-origin: 83.155px 349.87px; transform: rotate(180deg);" class="animable" id="elp4r2d2kijca"></rect></g><g id="eln8akc1fr05g"><rect x="80.66" y="289.32" width="4.99" height="121.1" style="fill: rgb(255, 255, 255); opacity: 0.2; isolation: isolate; transform-origin: 83.155px 349.87px; transform: rotate(180deg);" class="animable" id="el4bo93x71t1b"></rect></g><g id="elxskdyf7ph7r"><rect x="83.16" y="289.32" width="2.5" height="121.1" style="fill: rgb(255, 255, 255); opacity: 0.2; isolation: isolate; transform-origin: 84.41px 349.87px; transform: rotate(180deg);" class="animable" id="el70wmsxizybn"></rect></g><polygon points="124.42 410.19 126.58 410.49 128.42 410.19 142.66 412.19 142.66 414.26 138.66 414.26 116.29 414.26 112.29 414.26 112.29 412.19 124.42 410.19" style="fill: rgb(38, 50, 56); transform-origin: 127.475px 412.225px;" id="elun17ug25qc" class="animable"></polygon><g id="eln1kqq1a00tp"><polygon points="124.42 410.19 126.58 410.49 128.42 410.19 142.66 412.19 142.66 414.26 138.66 414.26 116.29 414.26 112.29 414.26 112.29 412.19 124.42 410.19" style="fill: rgb(255, 255, 255); opacity: 0.2; isolation: isolate; transform-origin: 127.475px 412.225px;" class="animable" id="eljf6lceyh0k"></polygon></g><g id="elbv41yipqcfo"><polygon points="126.58 410.49 138.66 412.19 138.66 414.26 142.66 414.26 142.66 412.19 128.41 410.19 126.58 410.49" style="fill: rgb(255, 255, 255); opacity: 0.2; isolation: isolate; transform-origin: 134.62px 412.225px;" class="animable" id="el6w9nlxj6j0o"></polygon></g><g id="elos45vxbo08d"><rect x="123.62" y="289.32" width="4.99" height="121.1" style="fill: rgb(38, 50, 56); transform-origin: 126.115px 349.87px; transform: rotate(180deg);" class="animable" id="eld9cwjpo7uil"></rect></g><g id="el0t9wkgwp3vw"><rect x="123.62" y="289.32" width="4.99" height="121.1" style="fill: rgb(255, 255, 255); opacity: 0.2; isolation: isolate; transform-origin: 126.115px 349.87px; transform: rotate(180deg);" class="animable" id="elqw9ip9y2n6"></rect></g><g id="elbqijs6bkkdg"><rect x="126.12" y="289.32" width="2.5" height="121.1" style="fill: rgb(255, 255, 255); opacity: 0.2; isolation: isolate; transform-origin: 127.37px 349.87px; transform: rotate(180deg);" class="animable" id="eld717imu2own"></rect></g><path d="M85.7,364.82a2,2,0,0,0,.35,1.17,1.08,1.08,0,0,0,.7.47l.15,0h44.34c.66,0,1.19-.74,1.19-1.66a2,2,0,0,0-.35-1.17,1,1,0,0,0-.84-.49H86.9l-.15,0A1.56,1.56,0,0,0,85.7,364.82Z" style="fill: rgb(38, 50, 56); transform-origin: 109.059px 364.8px;" id="elm3h2iy0z51" class="animable"></path><g id="eljp0r1pwwbyq"><path d="M85.7,364.82a2,2,0,0,0,.35,1.17,1.08,1.08,0,0,0,.7.47l.15,0h44.34c.66,0,1.19-.74,1.19-1.66a2,2,0,0,0-.35-1.17,1,1,0,0,0-.84-.49H86.9l-.15,0A1.56,1.56,0,0,0,85.7,364.82Z" style="fill: rgb(255, 255, 255); opacity: 0.5; transform-origin: 109.059px 364.8px;" class="animable" id="el3atww2bvjpa"></path></g><path d="M80.39,347h2.46c7.78,0,14.09,8,14.09,17.8s-6.31,17.8-14.09,17.8H80.39c-7.77,0-14.08-8-14.08-17.8S72.62,347,80.39,347Z" style="fill: rgb(38, 50, 56); transform-origin: 81.625px 364.8px;" id="elpt7a66cxga" class="animable"></path><g id="eln7cidi1cjh"><path d="M66.31,364.82c0,9.83,6.31,17.8,14.08,17.8s14.09-8,14.09-17.8S88.17,347,80.39,347,66.31,355,66.31,364.82Z" style="fill: rgb(255, 255, 255); opacity: 0.2; isolation: isolate; transform-origin: 80.395px 364.81px;" class="animable" id="el1yku0tdwcy5"></path></g><path d="M78.05,351.63h1.83c5.76,0,10.43,5.91,10.43,13.19S85.64,378,79.88,378H78.05c-5.76,0-10.43-5.91-10.43-13.19S72.29,351.63,78.05,351.63Z" style="fill: rgb(38, 50, 56); transform-origin: 78.965px 364.815px;" id="elpt7hktxqvwj" class="animable"></path><g id="el6nu8113thd4"><path d="M67.62,364.82c0,7.28,4.67,13.19,10.43,13.19s10.44-5.91,10.44-13.19-4.67-13.19-10.44-13.19S67.62,357.54,67.62,364.82Z" style="fill: rgb(255, 255, 255); opacity: 0.1; isolation: isolate; transform-origin: 78.055px 364.82px;" class="animable" id="elk98o9dhjs6j"></path></g><path d="M75.72,360.78h.55c1.77,0,3.2,1.81,3.2,4s-1.43,4-3.2,4h-.55c-1.77,0-3.2-1.81-3.2-4S74,360.78,75.72,360.78Z" style="fill: rgb(38, 50, 56); transform-origin: 75.995px 364.78px;" id="els43mag9m5wb" class="animable"></path><g id="el1xsqszxfcni"><path d="M72.52,364.82c0,2.23,1.43,4,3.2,4s3.19-1.81,3.19-4-1.43-4-3.19-4S72.52,362.59,72.52,364.82Z" style="fill: rgb(255, 255, 255); opacity: 0.2; isolation: isolate; transform-origin: 75.715px 364.82px;" class="animable" id="eltatbwvohc7d"></path></g><path d="M71.7,364.82a2,2,0,0,0,.35,1.17,1,1,0,0,0,.69.47l.15,0h2.37c.65,0,1.19-.74,1.19-1.66a2.05,2.05,0,0,0-.35-1.17,1.06,1.06,0,0,0-.84-.49H72.89l-.15,0A1.56,1.56,0,0,0,71.7,364.82Z" style="fill: rgb(38, 50, 56); transform-origin: 74.0683px 364.8px;" id="elly30jzjy28" class="animable"></path><g id="el8dppr9l1ohx"><path d="M71.7,364.82a2,2,0,0,0,.35,1.17,1,1,0,0,0,.69.47,1.54,1.54,0,0,0,1.05-1.64,2,2,0,0,0-.35-1.17,1,1,0,0,0-.7-.47A1.56,1.56,0,0,0,71.7,364.82Z" style="fill: rgb(255, 255, 255); opacity: 0.2; isolation: isolate; transform-origin: 72.7456px 364.82px;" class="animable" id="eli6pxrvjwzjb"></path></g><path d="M85.7,328a2,2,0,0,0,.35,1.17,1.08,1.08,0,0,0,.7.47l.15,0h44.34c.66,0,1.19-.74,1.19-1.66a2,2,0,0,0-.35-1.17,1,1,0,0,0-.84-.49H86.75A1.59,1.59,0,0,0,85.7,328Z" style="fill: rgb(38, 50, 56); transform-origin: 109.06px 327.98px;" id="el1csn9frp1ne" class="animable"></path><g id="elgoy42q4lkn4"><path d="M85.7,328a2,2,0,0,0,.35,1.17,1.08,1.08,0,0,0,.7.47l.15,0h44.34c.66,0,1.19-.74,1.19-1.66a2,2,0,0,0-.35-1.17,1,1,0,0,0-.84-.49H86.75A1.59,1.59,0,0,0,85.7,328Z" style="fill: rgb(255, 255, 255); opacity: 0.5; transform-origin: 109.06px 327.98px;" class="animable" id="elp5hj5jnk2v"></path></g><path d="M79.86,313.14h2c6.48,0,11.74,6.64,11.74,14.83S88.39,342.8,81.91,342.8h-2c-6.48,0-11.73-6.64-11.73-14.83S73.38,313.14,79.86,313.14Z" style="fill: rgb(38, 50, 56); transform-origin: 80.89px 327.97px;" id="elspeswmtfrfr" class="animable"></path><g id="eljtghq30zxqp"><ellipse cx="79.86" cy="327.97" rx="11.74" ry="14.83" style="fill: rgb(255, 255, 255); opacity: 0.2; isolation: isolate; transform-origin: 79.86px 327.97px;" class="animable" id="el8bs4lszd8zj"></ellipse></g><path d="M77.91,317h1.52c4.8,0,8.69,4.92,8.69,11s-3.89,11-8.69,11H77.91c-4.8,0-8.69-4.92-8.69-11S73.11,317,77.91,317Z" style="fill: rgb(38, 50, 56); transform-origin: 78.67px 328px;" id="elk4k09kudq6m" class="animable"></path><g id="el8iuos8psa7g"><ellipse cx="77.91" cy="327.97" rx="8.69" ry="10.99" style="fill: rgb(255, 255, 255); opacity: 0.1; isolation: isolate; transform-origin: 77.91px 327.97px;" class="animable" id="el9vnlu1ai8lm"></ellipse></g><path d="M76,324.6h.47c1.47,0,2.66,1.51,2.66,3.37s-1.19,3.37-2.66,3.37H76c-1.47,0-2.66-1.51-2.66-3.37S74.49,324.6,76,324.6Z" style="fill: rgb(38, 50, 56); transform-origin: 76.235px 327.97px;" id="el7bp7d3li2lt" class="animable"></path><g id="el4zkpbocwylg"><path d="M73.3,328c0,1.86,1.19,3.37,2.66,3.37s2.67-1.51,2.67-3.37S77.44,324.6,76,324.6,73.3,326.11,73.3,328Z" style="fill: rgb(255, 255, 255); opacity: 0.2; isolation: isolate; transform-origin: 75.965px 327.985px;" class="animable" id="eluy2psv6l3a"></path></g><path d="M71.7,328a2,2,0,0,0,.35,1.17,1,1,0,0,0,.69.47l.15,0h2.37c.65,0,1.19-.74,1.19-1.66a2.05,2.05,0,0,0-.35-1.17,1,1,0,0,0-.84-.49H72.74A1.58,1.58,0,0,0,71.7,328Z" style="fill: rgb(38, 50, 56); transform-origin: 74.0693px 327.98px;" id="ele0e8kwb7nn" class="animable"></path><g id="eldxiopnk74w8"><path d="M71.7,328a2,2,0,0,0,.35,1.17,1,1,0,0,0,.69.47A1.54,1.54,0,0,0,73.79,328a2,2,0,0,0-.35-1.17,1.09,1.09,0,0,0-.7-.48A1.58,1.58,0,0,0,71.7,328Z" style="fill: rgb(255, 255, 255); opacity: 0.2; isolation: isolate; transform-origin: 72.7459px 327.995px;" class="animable" id="el3imzm3igrca"></path></g><path d="M85.7,297a2,2,0,0,0,.35,1.17,1.14,1.14,0,0,0,.7.48h44.49c.66,0,1.19-.74,1.19-1.66a2,2,0,0,0-.35-1.17,1,1,0,0,0-.84-.49H86.9l-.15,0A1.56,1.56,0,0,0,85.7,297Z" style="fill: rgb(38, 50, 56); transform-origin: 109.059px 296.99px;" id="elinhd10521od" class="animable"></path><g id="elu7ba71f7kes"><path d="M85.7,297a2,2,0,0,0,.35,1.17,1.14,1.14,0,0,0,.7.48h44.49c.66,0,1.19-.74,1.19-1.66a2,2,0,0,0-.35-1.17,1,1,0,0,0-.84-.49H86.9l-.15,0A1.56,1.56,0,0,0,85.7,297Z" style="fill: rgb(255, 255, 255); opacity: 0.5; transform-origin: 109.059px 296.99px;" class="animable" id="el3e9rasoemyr"></path></g><path d="M78.64,285.89h1.54c4.86,0,8.8,5,8.8,11.12s-3.94,11.13-8.8,11.13H78.64c-4.86,0-8.8-5-8.8-11.13S73.78,285.89,78.64,285.89Z" style="fill: rgb(38, 50, 56); transform-origin: 79.41px 297.015px;" id="eltrliaaedro" class="animable"></path><g id="elvcgo2t09w2d"><path d="M69.84,297c0,6.15,3.94,11.13,8.8,11.13s8.81-5,8.81-11.13-3.94-11.12-8.81-11.12S69.84,290.87,69.84,297Z" style="fill: rgb(255, 255, 255); opacity: 0.2; isolation: isolate; transform-origin: 78.645px 297.005px;" class="animable" id="el4b76vud3w0r"></path></g><path d="M77.18,288.77h1.14c3.6,0,6.52,3.69,6.52,8.24s-2.92,8.24-6.52,8.24H77.18c-3.6,0-6.52-3.69-6.52-8.24S73.58,288.77,77.18,288.77Z" style="fill: rgb(38, 50, 56); transform-origin: 77.75px 297.01px;" id="elq2fi9rzsxq" class="animable"></path><g id="elmxfjplbx9ie"><ellipse cx="77.18" cy="297.01" rx="6.52" ry="8.24" style="fill: rgb(255, 255, 255); opacity: 0.1; isolation: isolate; transform-origin: 77.18px 297.01px;" class="animable" id="elduddrgv6nel"></ellipse></g><path d="M75.72,294.49h.35a2.59,2.59,0,0,1,0,5.05h-.35a2.59,2.59,0,0,1,0-5.05Z" style="fill: rgb(38, 50, 56); transform-origin: 75.895px 297.015px;" id="elpgxr9127m59" class="animable"></path><g id="eld31izt7z3m6"><path d="M73.72,297a2.05,2.05,0,1,0,2-2.52A2.31,2.31,0,0,0,73.72,297Z" style="fill: rgb(255, 255, 255); opacity: 0.2; isolation: isolate; transform-origin: 75.737px 296.53px;" class="animable" id="elo53sriv3zug"></path></g><path d="M71.7,297a2,2,0,0,0,.35,1.17,1.09,1.09,0,0,0,.69.48h2.52c.65,0,1.19-.74,1.19-1.66a2.08,2.08,0,0,0-.35-1.17,1.06,1.06,0,0,0-.84-.49H72.89l-.15,0A1.56,1.56,0,0,0,71.7,297Z" style="fill: rgb(38, 50, 56); transform-origin: 74.0689px 296.99px;" id="eldg2nizvegat" class="animable"></path><g id="el9dhiri8v0w6"><path d="M71.7,297a2,2,0,0,0,.35,1.17,1.09,1.09,0,0,0,.69.48A1.56,1.56,0,0,0,73.79,297a2,2,0,0,0-.35-1.17,1,1,0,0,0-.7-.47A1.56,1.56,0,0,0,71.7,297Z" style="fill: rgb(255, 255, 255); opacity: 0.2; isolation: isolate; transform-origin: 72.7453px 297.005px;" class="animable" id="elmfu93zdhwbc"></path></g><path d="M127.37,299.21v4.43h.77l2.62-4.91-.44-1.75h-.75C129.57,299,127.37,299.21,127.37,299.21Z" style="fill: rgb(38, 50, 56); transform-origin: 129.065px 300.31px;" id="eliyddd35us7" class="animable"></path><g id="elmqncpz7vl3d"><path d="M127.37,299.21v4.43h.77l2.62-4.91-.44-1.75h-.75C129.57,299,127.37,299.21,127.37,299.21Z" style="fill: rgb(255, 255, 255); opacity: 0.2; isolation: isolate; transform-origin: 129.065px 300.31px;" class="animable" id="el90qfkavvjrv"></path></g><path d="M127.37,299.21v4.43h.13l2.62-4.91-.44-1.75h-.11C129.57,299,127.37,299.21,127.37,299.21Z" style="fill: rgb(38, 50, 56); transform-origin: 128.745px 300.31px;" id="elg83b8zheipc" class="animable"></path><path d="M127.37,330.21v4.43h.77l2.62-4.91-.44-1.75h-.75C129.57,330,127.37,330.21,127.37,330.21Z" style="fill: rgb(38, 50, 56); transform-origin: 129.065px 331.31px;" id="eluwx8ljtsro" class="animable"></path><g id="elzd63w69n9cc"><path d="M127.37,330.21v4.43h.77l2.62-4.91-.44-1.75h-.75C129.57,330,127.37,330.21,127.37,330.21Z" style="fill: rgb(255, 255, 255); opacity: 0.2; isolation: isolate; transform-origin: 129.065px 331.31px;" class="animable" id="elkvellyp8h4"></path></g><path d="M127.37,330.21v4.43h.13l2.62-4.91-.44-1.75h-.11C129.57,330,127.37,330.21,127.37,330.21Z" style="fill: rgb(38, 50, 56); transform-origin: 128.745px 331.31px;" id="elfgsh4ycptaq" class="animable"></path><path d="M127.37,367.2v4.43h.77l2.62-4.91-.44-1.75h-.75C129.57,367,127.37,367.2,127.37,367.2Z" style="fill: rgb(38, 50, 56); transform-origin: 129.065px 368.3px;" id="elm9xn0mf4s0n" class="animable"></path><g id="el8m9m35q1zrg"><path d="M127.37,367.2v4.43h.77l2.62-4.91-.44-1.75h-.75C129.57,367,127.37,367.2,127.37,367.2Z" style="fill: rgb(255, 255, 255); opacity: 0.2; isolation: isolate; transform-origin: 129.065px 368.3px;" class="animable" id="elbdt8jcwx0d"></path></g><path d="M127.37,367.2v4.43h.13l2.62-4.91-.44-1.75h-.11C129.57,367,127.37,367.2,127.37,367.2Z" style="fill: rgb(38, 50, 56); transform-origin: 128.745px 368.3px;" id="elsy6wvzdpyn" class="animable"></path><path d="M96.94,295.35c4.19,0,2,19.9,2.61,24.74s-.17,21.07.72,21.76,3.26-1.49,5.24-.89,2.81.39,5.56-.2,5.51-1.19,6.7-.79.57-43.9-.42-45-5.73-.91-5.73-.91-9.3.63-11.08.42A6.58,6.58,0,0,0,96.94,295.35Z" style="fill: #7F4ADB; transform-origin: 107.681px 318.017px;" id="el7klq85kft8r" class="animable"></path><g id="elopm7g30r"><path d="M96.94,295.35c4.19,0,2,19.9,2.61,24.74s-.17,21.07.72,21.76,3.26-1.49,5.24-.89,2.81.39,5.56-.2,5.51-1.19,6.7-.79.57-43.9-.42-45-5.73-.91-5.73-.91-9.3.63-11.08.42A6.58,6.58,0,0,0,96.94,295.35Z" style="fill: rgb(255, 255, 255); opacity: 0.5; isolation: isolate; transform-origin: 107.681px 318.017px;" class="animable" id="elv711ds93p6i"></path></g></g><g id="freepik--Character--inject-25" class="animable" style="transform-origin: 253.445px 315.214px;"><path d="M326.07,411.21l-17.65-4.12V357.24h-5.94v29.43H201v4.47H302.48v15.95l-17.64,4.12a1.9,1.9,0,0,0-1.47,1.85v3.05h44.16v-3.05A1.89,1.89,0,0,0,326.07,411.21Z" style="fill: rgb(38, 50, 56); transform-origin: 264.265px 386.675px;" id="el5lmtvruq8rn" class="animable"></path><g id="el15tu1ixqwj3"><path d="M326.07,411.21l-17.65-4.12V357.24h-5.94v29.43H201v4.47H302.48v15.95l-17.64,4.12a1.9,1.9,0,0,0-1.47,1.85v3.05h44.16v-3.05A1.89,1.89,0,0,0,326.07,411.21Z" style="fill: rgb(255, 255, 255); opacity: 0.1; isolation: isolate; transform-origin: 264.265px 386.675px;" class="animable" id="elkfhhi3arat9"></path></g><path d="M205.36,407.09V357.24h-5.94v49.85l-17.65,4.12a1.89,1.89,0,0,0-1.46,1.85v3.05h44.16v-3.05a1.9,1.9,0,0,0-1.47-1.85Z" style="fill: rgb(38, 50, 56); transform-origin: 202.39px 386.675px;" id="ele4cwjhknece" class="animable"></path><g id="elvpihajkdpjb"><path d="M205.36,407.09V357.24h-5.94v49.85l-17.65,4.12a1.89,1.89,0,0,0-1.46,1.85v3.05h44.16v-3.05a1.9,1.9,0,0,0-1.47-1.85Z" style="fill: rgb(255, 255, 255); opacity: 0.2; isolation: isolate; transform-origin: 202.39px 386.675px;" class="animable" id="el8965vj4pc6e"></path></g><path d="M181,351.16H325.61a0,0,0,0,1,0,0v7.07a1.35,1.35,0,0,1-1.35,1.35H182.33a1.35,1.35,0,0,1-1.35-1.35v-7.07A0,0,0,0,1,181,351.16Z" style="fill: rgb(38, 50, 56); transform-origin: 253.295px 355.37px;" id="eljmz30l3328q" class="animable"></path><g id="ele5xz7kzg6x"><path d="M325.61,351.16v7.06a1.35,1.35,0,0,1-1.35,1.35H182.33a1.35,1.35,0,0,1-1.35-1.35v-7.06Z" style="fill: rgb(255, 255, 255); opacity: 0.2; isolation: isolate; transform-origin: 253.295px 355.365px;" class="animable" id="eljb811yek9k"></path></g><g id="elwlbw3hx14z"><path d="M325.61,351.16v7.06a1.35,1.35,0,0,1-1.35,1.35H226.6v-8.41Z" style="opacity: 0.2; isolation: isolate; transform-origin: 276.105px 355.365px;" class="animable" id="el3jlkukiau48"></path></g><path d="M337.28,348a6.15,6.15,0,0,1-6.13,6.13H175.44a6.13,6.13,0,0,1,0-12.26H331.15A6.15,6.15,0,0,1,337.28,348Z" style="fill: #7F4ADB; transform-origin: 253.295px 348px;" id="elhcoqpt6zsow" class="animable"></path><g id="elq24px7l5q1"><path d="M237.22,348a6.15,6.15,0,0,1-6.14,6.13H175.44a6.13,6.13,0,0,1,0-12.26h55.64A6.15,6.15,0,0,1,237.22,348Z" style="fill: rgb(255, 255, 255); opacity: 0.2; isolation: isolate; transform-origin: 203.265px 348px;" class="animable" id="elza3e7s3n8tb"></path></g><g id="freepik--group--inject-25" class="animable" style="transform-origin: 259.117px 315.214px;"><path d="M286.94,297.34l-.58,4s-19.54-1.79-24.23-2.5c-2.25-.34-4.29-4.21-5.85-9.22a76.79,76.79,0,0,1-3-15.77c-.05-.5-.08-1-.11-1.46l-2.17-1,9.15-11.54s7.41,1,8.75,5-1.64,8.61-1.64,8.61a23,23,0,0,0,1.45,6.32c1.19,2.83-.57,5.91-.57,5.91l-1.1,3.76C274.63,290.67,286.94,297.34,286.94,297.34Z" style="fill: rgb(235, 179, 118); transform-origin: 268.97px 280.595px;" id="elhkqw94jpizh" class="animable"></path><path d="M296.88,303.16l2.86.35c3.24.39,6.27-2.6,6.76-6.69s-1.72-7.73-4.95-8.12l-2.86-.35c-3.24-.4-6.27,2.6-6.77,6.69S293.64,302.76,296.88,303.16Z" style="fill: rgb(38, 50, 56); transform-origin: 299.209px 295.929px;" id="el7sh7klwv0xi" class="animable"></path><g id="elxg05uvbme2o"><path d="M296.88,303.16l2.86.35c3.24.39,6.27-2.6,6.76-6.69s-1.72-7.73-4.95-8.12l-2.86-.35c-3.24-.4-6.27,2.6-6.77,6.69S293.64,302.76,296.88,303.16Z" style="fill: rgb(255, 255, 255); opacity: 0.1; isolation: isolate; transform-origin: 299.209px 295.929px;" class="animable" id="eljdk2x85if8n"></path></g><g id="elj7he83bxpq"><path d="M291.92,295c.5-4.09,3.53-7.09,6.77-6.69s5.45,4,4.95,8.12-3.52,7.08-6.76,6.69S291.43,299.13,291.92,295Z" style="fill: rgb(255, 255, 255); opacity: 0.2; isolation: isolate; transform-origin: 297.781px 295.714px;" class="animable" id="elgmy5i5vguyl"></path></g><path d="M285.73,297.2l10.66,1.3c1.25.16,2.43-1,2.63-2.6s-.67-3-1.93-3.15l-10.65-1.3a2.65,2.65,0,0,0-2.63,2.6C283.62,295.64,284.48,297.05,285.73,297.2Z" style="fill: rgb(38, 50, 56); transform-origin: 291.416px 294.982px;" id="el8bjh7s2xsqa" class="animable"></path><path d="M294.84,302.82c1.12,0,4.15-6.12,4.31-8s-8.55-4.44-8.55-4.44l-6.12,11.29S293.45,302.82,294.84,302.82Z" style="fill: rgb(235, 179, 118); transform-origin: 291.816px 296.6px;" id="elpd6u29byq9" class="animable"></path><path d="M281.61,301.3l2.87.35c3.23.39,6.26-2.61,6.76-6.69s-1.72-7.73-5-8.12l-2.86-.35c-3.24-.4-6.26,2.6-6.76,6.69S278.38,300.9,281.61,301.3Z" style="fill: rgb(38, 50, 56); transform-origin: 283.93px 294.069px;" id="elc3sfry5yh77" class="animable"></path><g id="elctzx25mgfym"><path d="M281.61,301.3l2.87.35c3.23.39,6.26-2.61,6.76-6.69s-1.72-7.73-5-8.12l-2.86-.35c-3.24-.4-6.26,2.6-6.76,6.69S278.38,300.9,281.61,301.3Z" style="fill: rgb(255, 255, 255); opacity: 0.1; isolation: isolate; transform-origin: 283.93px 294.069px;" class="animable" id="elkos7ctc9j5q"></path></g><g id="elp2ihdmut94o"><path d="M276.66,293.18c.5-4.09,3.52-7.09,6.76-6.69s5.45,4,5,8.12-3.53,7.08-6.77,6.69S276.16,297.27,276.66,293.18Z" style="fill: rgb(255, 255, 255); opacity: 0.2; isolation: isolate; transform-origin: 282.534px 293.894px;" class="animable" id="el6hfed7d4ofq"></path></g><g id="elvly66hoc46l"><path d="M256.28,289.61a76.79,76.79,0,0,1-3-15.77c1.61-1.57,3-2.77,3-2.77S258.74,281.45,256.28,289.61Z" style="opacity: 0.2; isolation: isolate; transform-origin: 255.327px 280.34px;" class="animable" id="elp9sgvmkvj3l"></path></g><path d="M215.08,298.93l37.53,2.17,2,9.46,23.17,3.64s4.75,14.4-6.2,30.62c0,0-33.73.93-47.4.93C206.4,345.75,215.08,298.93,215.08,298.93Z" style="fill: rgb(38, 50, 56); transform-origin: 245.883px 322.34px;" id="eleowykrru29t" class="animable"></path><path d="M240.43,311a.24.24,0,0,1-.2-.11c-.89-1.27-1.7-4.52-2.08-6.23-.45,1.66-1.44,4.7-3,5.54a.25.25,0,1,1-.24-.43c1.41-.78,2.36-3.83,2.77-5.38-.94,1-2.69,2.51-4.17,2.6a1.75,1.75,0,0,1-1.33-.46c-.8-.74-.78-1.34-.62-1.72.5-1.17,3-1.76,6.59-1.53h0c.45.06,5,.68,5.95,2.54a1.71,1.71,0,0,1-.14,1.71,1.52,1.52,0,0,1-1.32.88h0c-1.4,0-3-2.1-4-3.52.4,1.74,1.15,4.6,1.93,5.72a.24.24,0,0,1-.06.34A.3.3,0,0,1,240.43,311Zm-1.79-7.15c.88,1.44,2.75,4,4.05,4.06h0a1.05,1.05,0,0,0,.89-.63,1.23,1.23,0,0,0,.12-1.24C243.1,304.76,240.2,304.05,238.64,303.8Zm-2-.12c-2.8,0-4.34.6-4.63,1.27-.18.42.17.87.5,1.16a1.19,1.19,0,0,0,1,.33c1.46-.09,3.35-1.92,4.12-2.74Z" style="fill: rgb(255, 255, 255); transform-origin: 237.869px 307.115px;" id="elryz3zhbecwn" class="animable"></path><path d="M302.63,322.6c-2.67-3.89-26.15-7.67-26.15-7.67-8.59,11.56-4.76,27.33-4.76,27.33,14.9-.07,35.24-4.57,35.24-4.57S304,324.64,302.63,322.6Z" style="fill: rgb(235, 179, 118); transform-origin: 288.914px 328.595px;" id="el6x0hpqq4tdb" class="animable"></path><path d="M283.8,328.74a43.2,43.2,0,0,1,3.46,9.64c3.33,20.55,28.9,66.13,28.9,66.13L321.7,402s-9-43.9-14.74-64.27c-1.6-5.67-4.66-11.89-5.44-14.5Z" style="fill: rgb(235, 179, 118); transform-origin: 302.75px 363.87px;" id="el7l537kemh8d" class="animable"></path><path d="M313,414.79,314,410l.17-8.56h7.17a1.74,1.74,0,0,1,2.85-1.17l1.06,5.36c1.81,1.63,6,5.88,11.66,7.11,1.26.28.86,3.33-2.23,3.33s-9.81-.24-12-.24c-3.62,0-5.72.18-8.61.23l-.24,0A1.08,1.08,0,0,1,313,414.79Z" style="fill: rgb(38, 50, 56); transform-origin: 325.279px 407.967px;" id="eloe2bmh9n65p" class="animable"></path><path d="M226.6,325.7a43.51,43.51,0,0,1,1.92,10.06c.08,20.81,18.22,69.82,18.22,69.82l5.87-1.64s-2-44.77-4.53-65.79c-.69-5.85-2.74-12.47-3.11-15.17Z" style="fill: rgb(235, 179, 118); transform-origin: 239.605px 364.28px;" id="el5ixsjl9ed9m" class="animable"></path><path d="M242.93,414.79l1-4.75.18-8.56h7.17a1.74,1.74,0,0,1,2.85-1.17l1.06,5.36c1.81,1.63,6,5.88,11.65,7.11,1.27.28.86,3.33-2.22,3.33s-9.82-.24-12.05-.24c-3.63,0-5.73.18-8.62.23a.85.85,0,0,1-.23,0A1.08,1.08,0,0,1,242.93,414.79Z" style="fill: rgb(38, 50, 56); transform-origin: 255.206px 408.007px;" id="elmvmbxve30a" class="animable"></path><path d="M223.85,341.12c-1.78-2.12-.79-18.86,5.14-24s14.84-.54,15.83,3.47,2.13,11.2,2.13,11.2S229.78,348.16,223.85,341.12Z" style="fill: rgb(235, 179, 118); transform-origin: 235.002px 328.859px;" id="elctnksdh70vl" class="animable"></path><path d="M260.12,259.81s-6.3,21-7.51,41.28l-37.53-2.16s-.48-10.43.08-23.54c.14-3.34.34-6.86.64-10.43A145.6,145.6,0,0,1,219,243.79a46.78,46.78,0,0,1,5,.31,63.39,63.39,0,0,1,10.1,1.88h0a52.74,52.74,0,0,1,8,2.89c1.77.81,3.44,1.64,5,2.45h0a87.51,87.51,0,0,1,10.6,6.58C259.27,259.08,260.12,259.81,260.12,259.81Z" style="fill: rgb(235, 179, 118); transform-origin: 237.504px 272.44px;" id="el0lxd1rt7bh8m" class="animable"></path><path d="M190.5,303.12l-2.86-.41c-3.22-.46-6.31,2.48-6.89,6.56s1.57,7.75,4.8,8.21l2.85.41c3.23.45,6.32-2.48,6.89-6.56S193.73,303.57,190.5,303.12Z" style="fill: rgb(38, 50, 56); transform-origin: 188.019px 310.299px;" id="eluy4oghqyuj" class="animable"></path><g id="elyeubvwqz4tc"><path d="M190.5,303.12l-2.86-.41c-3.22-.46-6.31,2.48-6.89,6.56s1.57,7.75,4.8,8.21l2.85.41c3.23.45,6.32-2.48,6.89-6.56S193.73,303.57,190.5,303.12Z" style="fill: rgb(255, 255, 255); opacity: 0.1; isolation: isolate; transform-origin: 188.019px 310.299px;" class="animable" id="elgobnw74s5ng"></path></g><g id="el3e5t7dc6gql"><path d="M195.29,311.33c-.57,4.08-3.66,7-6.89,6.56s-5.37-4.14-4.79-8.22,3.66-7,6.89-6.55S195.87,307.25,195.29,311.33Z" style="fill: rgb(255, 255, 255); opacity: 0.2; isolation: isolate; transform-origin: 189.45px 310.504px;" class="animable" id="elrzqhfr2f51"></path></g><path d="M201.52,309.29l-10.62-1.51c-1.25-.18-2.45,1-2.68,2.55a2.65,2.65,0,0,0,1.87,3.19L200.71,315a2.67,2.67,0,0,0,2.68-2.55C203.61,310.89,202.78,309.46,201.52,309.29Z" style="fill: rgb(38, 50, 56); transform-origin: 195.784px 311.381px;" id="ell4pgn5v250i" class="animable"></path><path d="M223.87,245s-6-3.76-10.36-1.47S206,255.06,206,255.06s-6.88,15.15-8.57,17.6-4.08,29.08-4.08,29.08l4.86.94s7.71-15.95,6.28-25.26c-.28-1.85,7.78-2.11,14.61-15.75,0,0,4-5.22,4.87-9.12A16.84,16.84,0,0,0,223.87,245Z" style="fill: rgb(235, 179, 118); transform-origin: 208.85px 272.735px;" id="elaa87xfx8hbd" class="animable"></path><path d="M193.35,301.74s-5.09,7.79-5.28,9.68,8.46,4.61,8.46,4.61,3.47-7.8,3-8.94-.79-7-.79-7Z" style="fill: rgb(235, 179, 118); transform-origin: 193.82px 308.06px;" id="elaejy0i1mc1n" class="animable"></path><path d="M205.72,305.28l-2.85-.41c-3.23-.46-6.31,2.48-6.89,6.56s1.57,7.75,4.79,8.21l2.86.41c3.23.45,6.31-2.48,6.89-6.56S209,305.73,205.72,305.28Z" style="fill: rgb(38, 50, 56); transform-origin: 203.251px 312.459px;" id="elw6i9suth9u" class="animable"></path><g id="elftpojf12hl"><path d="M205.72,305.28l-2.85-.41c-3.23-.46-6.31,2.48-6.89,6.56s1.57,7.75,4.79,8.21l2.86.41c3.23.45,6.31-2.48,6.89-6.56S209,305.73,205.72,305.28Z" style="fill: rgb(255, 255, 255); opacity: 0.1; isolation: isolate; transform-origin: 203.251px 312.459px;" class="animable" id="elasbn0r8qqyo"></path></g><g id="elk95wfy4jd1"><path d="M210.52,313.49c-.58,4.08-3.66,7-6.89,6.56s-5.37-4.14-4.8-8.22,3.67-7,6.89-6.55S211.1,309.41,210.52,313.49Z" style="fill: rgb(255, 255, 255); opacity: 0.2; isolation: isolate; transform-origin: 204.676px 312.664px;" class="animable" id="eld0o7fu1yw0g"></path></g><g id="elltahz9o6xuo"><path d="M257.67,257.92c-4.37-.07-13-1.93-13-1.93l-2.59,2.85L241,256s-15.52-9.81-15.92-10.33A13.15,13.15,0,0,1,224,244.1a63.39,63.39,0,0,1,10.1,1.88h0a52.74,52.74,0,0,1,8,2.89c1.77.81,3.44,1.64,5,2.45h0A87.51,87.51,0,0,1,257.67,257.92Z" style="opacity: 0.1; isolation: isolate; transform-origin: 240.835px 251.47px;" class="animable" id="elyhqknvhgeqd"></path></g><path d="M246.48,249.59c-.69,1.15,2.82,3.64,2.23,4.1a17.13,17.13,0,0,1-6.2,2.58,34.49,34.49,0,0,1-9.56-9c1.31-.12,4.05-1,4.88-1.91,2.13-2.38,4.43-10.12,4.43-10.12l8.38,9s-.19.19-.49.53A35.53,35.53,0,0,0,246.48,249.59Z" style="fill: rgb(235, 179, 118); transform-origin: 241.795px 245.755px;" id="elmfo5pmjx4ao" class="animable"></path><g id="elpjje95ouxo9"><path d="M241.21,241.74s.09,5.65,5.27,7.85a35.53,35.53,0,0,1,3.67-4.83c-.31-.32-.52-.52-.52-.52Z" style="opacity: 0.2; isolation: isolate; transform-origin: 245.68px 245.665px;" class="animable" id="el22p043bbnarj"></path></g><path d="M264.82,228.87s-1.07,10.42-7.22,11.32,2-14.74,2-14.74Z" style="fill: rgb(38, 50, 56); transform-origin: 260.062px 232.839px;" id="els0vmahtluol" class="animable"></path><g id="elma6jcu09xm"><path d="M264.82,228.87s-1.07,10.42-7.22,11.32,2-14.74,2-14.74Z" style="fill: rgb(255, 255, 255); opacity: 0.2; isolation: isolate; transform-origin: 260.062px 232.839px;" class="animable" id="el95wndonrhj7"></path></g><path d="M258.37,243.46a21.62,21.62,0,0,1-2.27,2.16,8.89,8.89,0,0,1-.82.59,9.57,9.57,0,0,1-6.91,1.42,9.16,9.16,0,0,1-4.69-2.36,8.58,8.58,0,0,1-2.52-5.18c-.64-4.86,1.86-8,5.67-13.66a9.17,9.17,0,0,1,3.15-3,9.31,9.31,0,0,1,12.74,3.36C265.81,232.06,262.44,239,258.37,243.46Z" style="fill: rgb(235, 179, 118); transform-origin: 252.492px 234.968px;" id="el7m3qjvka115" class="animable"></path><g id="elwcvcsaud0d"><path d="M258.37,243.46a21.62,21.62,0,0,1-2.27,2.16,8.89,8.89,0,0,1-.82.59,9.57,9.57,0,0,1-6.91,1.42,9.16,9.16,0,0,1-4.69-2.36c-.83-3.28-.11-7.64,2.95-13.18l2.14-1.45s-1,4.92,0,5.61,2.7-.64,3.18,4.58a6.11,6.11,0,0,0,3.28,2.44A11.09,11.09,0,0,0,258.37,243.46Z" style="opacity: 0.1; isolation: isolate; transform-origin: 250.865px 239.208px;" class="animable" id="eloetusbiyxts"></path></g><path d="M253.9,234.22a.87.87,0,0,0-.08,1.2c.29.22.8,0,1.13-.4s.38-1,.09-1.2S254.25,233.78,253.9,234.22Z" style="fill: rgb(38, 50, 56); transform-origin: 254.424px 234.621px;" id="elz08z69pepns" class="animable"></path><path d="M258.89,238a.87.87,0,0,0-.08,1.2c.29.22.8,0,1.13-.4s.37-1,.09-1.2S259.21,237.61,258.89,238Z" style="fill: rgb(38, 50, 56); transform-origin: 259.412px 238.405px;" id="ela7rwus7b5o8" class="animable"></path><path d="M257.14,237a20,20,0,0,0-.77,5.39,3.22,3.22,0,0,1-2.42-1.23Z" style="fill: rgb(213, 135, 69); transform-origin: 255.545px 239.695px;" id="elxoxmushx3g" class="animable"></path><path d="M254.5,231.13a.36.36,0,0,0,.24.25,2.63,2.63,0,0,1,1.78,1.53.32.32,0,1,0,.61-.19h0a3.21,3.21,0,0,0-2.22-2,.32.32,0,0,0-.4.21h0A.43.43,0,0,0,254.5,231.13Z" style="fill: rgb(38, 50, 56); transform-origin: 255.822px 231.929px;" id="el9kc5i75yobm" class="animable"></path><path d="M262.81,236.76a.41.41,0,0,0,.19,0,.33.33,0,0,0,0-.46h0a3.22,3.22,0,0,0-2.75-1.14.32.32,0,0,0-.27.37h0a.33.33,0,0,0,.36.27h0a2.63,2.63,0,0,1,2.17.94A.32.32,0,0,0,262.81,236.76Z" style="fill: rgb(38, 50, 56); transform-origin: 261.534px 235.968px;" id="el11z4n7lgae8c" class="animable"></path><path d="M258.42,220.19c-6.34-3.26-12.79-1.18-16,9.28-1.79,5.91-1.28,9.37-1.28,9.37.06-3.26,3.09-8.1,4-7.79s.34,1.25.34,1.25c2.48-.19,6.23-2.54,6.52-5.23.69-6.33,7.57-3.66,8.26-.88,0,0,2.38,3.71,4.53,2.68S265.77,220,258.42,220.19Z" style="fill: rgb(38, 50, 56); transform-origin: 253.413px 228.807px;" id="el6499u63qj7a" class="animable"></path><path d="M252,242.73a.2.2,0,0,1-.11,0,4,4,0,0,1-1.9-4.76.25.25,0,0,1,.32-.16.25.25,0,0,1,.16.32,3.41,3.41,0,0,0,1.64,4.15.25.25,0,0,1,.11.34A.24.24,0,0,1,252,242.73Z" style="fill: rgb(38, 50, 56); transform-origin: 251.021px 240.267px;" id="elyxfw7c90pz7" class="animable"></path><g id="eldmqzhdcww7"><path d="M258.42,220.19c-6.34-3.26-12.79-1.18-16,9.28-1.79,5.91-1.28,9.37-1.28,9.37.06-3.26,3.09-8.1,4-7.79s.34,1.25.34,1.25c2.48-.19,6.23-2.54,6.52-5.23.69-6.33,7.57-3.66,8.26-.88,0,0,2.38,3.71,4.53,2.68S265.77,220,258.42,220.19Z" style="fill: rgb(255, 255, 255); opacity: 0.2; isolation: isolate; transform-origin: 253.413px 228.807px;" class="animable" id="elkqwwodaupu"></path></g><path d="M254.45,222.19s6.66,8.54,9.31,8.45,5.24-7.31,3.29-10.53-9.15-5.39-9.15-5.39a15.09,15.09,0,0,1,3.81,2.48s-5.57-2.79-9.23-2.88-8.79,4.27-9.87,9l1-1.45s-2.36,5.71-1.11,7.65C242.46,229.47,247,214.82,254.45,222.19Z" style="fill: rgb(38, 50, 56); transform-origin: 254.933px 222.48px;" id="el0iux35qr6skc" class="animable"></path><path d="M241.08,229.08a6.43,6.43,0,0,0,1,4.86c1.27,1.88,3.38,1.09,4.25-.88.77-1.76,1.07-4.9-.82-6.08A2.9,2.9,0,0,0,241.08,229.08Z" style="fill: rgb(235, 179, 118); transform-origin: 243.944px 230.77px;" id="eld8jjmh301z" class="animable"></path><g id="el10bmd4z3l52a"><path d="M260,271.07l-2.86-8.54-7.71-2.72s3.6,1.87,4.52,2.59c1.36,1.05,3.06,5.27,3.06,5.27s-1.75,7.44-3.76,9.1c-2.46,2-12,1.82-12-1.38,0-5.34.58-12.73.58-12.73s-1.38,11.91-3.42,12.46c-4.17,1.12-15.45-4.05-16.57-6.92-.7-1.8,1.32-12.79,2.91-13.71s7.58.65,7.58.65-4.49-2.87-6.2-2.9c-2.55,0-9.36,4-9.36,4l3.17-.86a37.6,37.6,0,0,1-.07,5.21c-.2,1-1.65,3.1-4.21,6.65-.3,3.57-.32,4.78-.46,8.12,2.19-2,3.37-5.45,4-8.79.57,1.78.81,3.66,1.69,4.47,3.56,3.29,18.43,6,18.43,6s10,4.5,13.21,2.51c2.08-1.28,5.51-10,5.21-10.5S260,271.07,260,271.07Z" style="opacity: 0.2; isolation: isolate; transform-origin: 237.6px 266.149px;" class="animable" id="elshmdaz0na5l"></path></g><path d="M227.53,244.14s-1.14,25.91,10.38,30.26S255,255.53,255,255.53l2.74,1.79s-7.49,31.47-4.25,37.66l-.84,6.12-37.53-2.17L214,290.36s6.46-2.25,7.78-13.72,1.31-32.85,1.31-32.85Z" style="fill: #7F4ADB; transform-origin: 235.87px 272.445px;" id="elhksrlylod88" class="animable"></path><g id="el9zmnq7l2wyn"><path d="M227.53,244.14s-1.14,25.91,10.38,30.26S255,255.53,255,255.53l2.74,1.79s-7.49,31.47-4.25,37.66l-.84,6.12-37.53-2.17L214,290.36s6.46-2.25,7.78-13.72,1.31-32.85,1.31-32.85Z" style="fill: rgb(255, 255, 255); opacity: 0.5; isolation: isolate; transform-origin: 235.87px 272.445px;" class="animable" id="el0sojzx86pdu"></path></g></g></g><defs>     <filter id="active" height="200%">         <feMorphology in="SourceAlpha" result="DILATED" operator="dilate" radius="2"></feMorphology>                <feFlood flood-color="#32DFEC" flood-opacity="1" result="PINK"></feFlood>        <feComposite in="PINK" in2="DILATED" operator="in" result="OUTLINE"></feComposite>        <feMerge>            <feMergeNode in="OUTLINE"></feMergeNode>            <feMergeNode in="SourceGraphic"></feMergeNode>        </feMerge>    </filter>    <filter id="hover" height="200%">        <feMorphology in="SourceAlpha" result="DILATED" operator="dilate" radius="2"></feMorphology>                <feFlood flood-color="#ff0000" flood-opacity="0.5" result="PINK"></feFlood>        <feComposite in="PINK" in2="DILATED" operator="in" result="OUTLINE"></feComposite>        <feMerge>            <feMergeNode in="OUTLINE"></feMergeNode>            <feMergeNode in="SourceGraphic"></feMergeNode>        </feMerge>            <feColorMatrix type="matrix" values="0   0   0   0   0                0   1   0   0   0                0   0   0   0   0                0   0   0   1   0 "></feColorMatrix>    </filter></defs></svg>